<?xml version="1.0" encoding="UTF-8"?>
<svg width="96px" height="36px" viewBox="0 0 96 36" version="1.1" xmlns="http://www.w3.org/2000/svg" xmlns:xlink="http://www.w3.org/1999/xlink">
    <!-- Generator: Sketch 51.3 (57544) - http://www.bohemiancoding.com/sketch -->
    <title>Searchlight_Pictures_VECTOR_NoLights_2.10.21_K[15]</title>
    <desc>Created with Sketch.</desc>
    <defs>
        <polygon id="path-1" points="0.0285148515 0.386395453 95.9158812 0.386395453 95.9158812 35.6435644 0.0285148515 35.6435644"></polygon>
    </defs>
    <g id="Page-1" stroke="none" stroke-width="1" fill="none" fill-rule="evenodd">
        <g id="Searchlight_Pictures_VECTOR_NoLights_2.10.21_K[15]">
            <mask id="mask-2" fill="white">
                <use xlink:href="#path-1"></use>
            </mask>
            <g id="Clip-2"></g>
            <path d="M3.73211881,31.6400792 C3.73211881,31.6400792 3.73211881,30.6325545 3.73211881,30.1002772 C4.05576238,30.1002772 4.51390099,30.0822178 4.72063366,30.1582574 C5.10843564,30.2746931 5.25148515,30.5080396 5.25005941,30.8801584 C5.24863366,31.2508515 4.97916832,31.5740198 4.59231683,31.6272475 C4.33615842,31.6543366 3.73211881,31.6400792 3.73211881,31.6400792 Z M3.74590099,32.9969109 C3.88229703,32.9969109 4.224,33.0002376 4.41647525,32.9945347 C5.82558416,32.9945347 6.56554455,32.0592475 6.56554455,30.8701782 C6.56554455,29.5993663 5.50906931,28.7672079 4.38891089,28.7672079 C3.85045545,28.7672079 2.39572277,28.761505 2.39572277,28.761505 L2.39572277,35.5694257 L3.7449505,35.5694257 C3.7449505,35.5694257 3.74590099,33.8960792 3.74590099,32.9969109 Z M65.2196436,31.7679208 L65.2196436,29.948198 C65.2196436,29.948198 65.961505,29.9467723 66.24,29.9467723 C66.7328317,29.9467723 67.1448713,30.3687921 67.1448713,30.8801584 C67.1448713,31.3169109 66.7527921,31.766495 66.2480792,31.766495 C65.9458218,31.766495 65.2196436,31.7679208 65.2196436,31.7679208 Z M67.4423762,35.5694257 L69.1546931,35.5694257 C69.1546931,35.5694257 67.624396,33.7226139 66.9314851,32.8657426 C68.1034455,32.5444752 68.5216634,31.5250693 68.5102574,30.8449901 C68.5007525,30.2613861 68.2398416,29.6592475 67.7522376,29.2771485 C67.4133861,29.0119604 67.0607525,28.8451485 66.4823762,28.803802 C65.6906139,28.7866931 63.8775446,28.8023762 63.8775446,28.8023762 L63.8775446,35.5694257 L65.2272475,35.5689505 L65.2272475,32.8657426 L67.4423762,35.5694257 Z M23.0371485,14.7260198 C22.5077228,14.7260198 22.0776238,14.7260198 21.5819406,14.7260198 C21.8076832,11.4472871 22.3095446,4.05386139 22.3095446,4.05386139 C22.3095446,4.05386139 22.8123564,11.4501386 23.0371485,14.7260198 Z M20.0663762,0.653465347 L17.3831287,24.1962772 L20.7331485,24.1972277 L21.3595248,17.8873663 L23.2795248,17.8883168 L23.9767129,24.2072079 L27.2844356,24.190099 L24.622099,0.653465347 L20.0663762,0.653465347 Z M31.4946535,10.2130693 C31.4946535,8.01267327 31.4946535,5.81655446 31.4946535,3.63992079 C31.912396,3.63992079 32.4080792,3.63041584 32.8538614,3.69932673 C33.1418614,3.74352475 33.3343366,3.94360396 33.4103762,4.22685149 C33.4493465,4.37132673 33.4659802,4.52578218 33.4659802,4.67548515 C33.4702574,6.12594059 33.4731089,7.57592079 33.4626535,9.02637624 C33.4612277,9.24023762 33.4108515,9.46122772 33.3428911,9.66558416 C33.2312079,10.0020594 32.9712475,10.1888317 32.6209901,10.2087921 C32.2697822,10.2287525 31.9166733,10.2130693 31.4946535,10.2130693 Z M28.3394851,24.1962772 L31.6020594,24.1962772 C31.6020594,24.1962772 31.6020594,16.8484752 31.6020594,13.1976238 C31.6020594,13.1976238 32.7535842,13.1976238 32.9137426,13.2342178 C33.1741782,13.2774653 33.3324356,13.4770693 33.3799604,13.7251485 C33.4293861,13.9874851 33.4545743,14.2583762 33.4550495,14.5259406 C33.4602772,17.5442376 33.4583762,24.1962772 33.4583762,24.1962772 L36.5436832,24.1962772 C36.5436832,24.1962772 36.5479604,17.3821782 36.5417822,14.1614257 C36.5408317,13.7764752 36.5503366,13.395802 36.4847525,13.0151287 C36.3887525,12.4529109 36.1226139,11.9315644 35.4810297,11.7994455 C35.3408317,11.7704554 35.0998812,11.7714059 35.0998812,11.7714059 C35.0998812,11.7714059 35.3527129,11.7281584 35.4463366,11.6839604 C36.0047525,11.4192475 36.3165149,10.9078812 36.4543366,10.312396 C36.5294257,9.98732673 36.5517624,9.64467327 36.5531881,9.30962376 C36.5617426,7.33687129 36.5579406,5.36411881 36.5565149,3.39089109 C36.5565149,3.2060198 36.5698218,2.96269307 36.5436832,2.78019802 C36.4068119,1.83065347 35.9187327,1.14011881 34.9848713,0.855445545 C34.5566733,0.725227723 34.0937822,0.660594059 33.6446733,0.653465347 C32.0939406,0.62970297 28.3394851,0.653465347 28.3394851,0.653465347 L28.3394851,24.1962772 Z M0.0584554455,27.3666535 L95.9158812,27.3666535 L95.9158812,26.0188515 L0.0584554455,26.0188515 L0.0584554455,27.3666535 Z M7.9190495,9.25449505 L7.9190495,3.66083168 C7.91477228,3.35192079 7.78835644,2.9769505 7.65386139,2.69655446 C6.65489109,0.612594059 3.5529505,-0.587405941 1.25607921,1.40388119 C0.573623762,1.99508911 0.0575049505,2.70320792 0.0365940594,3.64657426 C0.0038019802,5.09560396 0.00237623762,6.54558416 0,7.99556436 C-0.00095049505,8.47413861 0.118811881,8.92229703 0.38970297,9.33433663 C1.41766337,10.8969505 2.42851485,12.4709703 3.4550495,14.0345347 C3.82431683,14.597703 4.22257426,15.1423366 4.60134653,15.6993267 C4.84419802,16.0567129 4.96586139,16.4426139 4.94637624,16.888396 C4.91881188,17.5109703 4.93972277,18.1354455 4.93924752,18.7589703 C4.93924752,19.484198 4.94019802,20.3367921 4.94019802,21.0615446 C4.94019802,21.2535446 4.86415842,21.4873663 4.60134653,21.6223366 C4.13988119,21.8590099 3.64942574,21.8675644 3.19413861,21.6199604 C3.05726733,21.5453465 2.93322772,21.3462178 2.91279208,21.1713267 C2.89615842,21.027802 2.89235644,20.8714455 2.89235644,20.7198416 C2.89140594,19.1011485 2.89283168,17.4829307 2.89045545,15.8647129 C2.8899802,15.6684356 2.89188119,15.2411881 2.89188119,15.2411881 L0.0133069307,15.2411881 C0.0133069307,15.2411881 0.0156831683,15.5605545 0.0152079208,15.7059802 C0.0123564356,17.5100198 0.0123564356,19.3140594 0.0147326733,21.1176238 C0.0156831683,22.1764752 0.473346535,23.0048317 1.32641584,23.6079208 C2.41140594,24.3749703 3.63421782,24.5584158 4.89932673,24.2642376 C6.87730693,23.8046733 7.96324752,21.9559604 7.90716832,20.5416238 C7.86011881,19.3463762 7.84681188,18.1449505 7.91239604,16.951604 C7.97845545,15.7449505 7.68,14.6889505 6.93433663,13.7493861 C6.9029703,13.7099406 6.87207921,13.6700198 6.8440396,13.6277228 C5.69774257,11.9016238 4.55477228,10.174099 3.40419802,8.45085149 C3.17417822,8.10582178 3.00546535,7.74130693 2.99976238,7.32546535 C2.98407921,6.17964356 2.97029703,5.03334653 2.98978218,3.88752475 C2.99310891,3.6969505 3.12047525,3.45742574 3.26732673,3.32958416 C3.64657426,2.99976238 4.11184158,3.00356436 4.55524752,3.18320792 C4.93924752,3.37283168 5.02906931,3.70835644 5.02764356,4.07714851 C5.02241584,5.62788119 5.02764356,9.25449505 5.02764356,9.25449505 L7.9190495,9.25449505 Z M12.3421782,3.66938614 C13.0189307,3.66938614 13.639604,3.67413861 14.2602772,3.6679604 C14.8937822,3.66178218 15.5296634,3.69647525 16.174099,3.64324752 C16.174099,2.64665347 16.1674455,0.653465347 16.1674455,0.653465347 L9.27540594,0.653465347 L9.27540594,24.1962772 L16.1674455,24.1962772 L16.1674455,21.219802 L12.3502574,21.219802 L12.3502574,12.9690297 L16.1674455,12.9690297 C16.1674455,12.9690297 16.1693465,11.0713663 16.1693465,10.0975842 C14.8847525,10.089505 13.639604,10.1023366 12.3502574,10.0942574 C12.3502574,7.93758416 12.3421782,5.83413861 12.3421782,3.66938614 Z M64.2834059,0.653465347 C64.2834059,0.653465347 64.2834059,14.6846733 64.2834059,21.2782574 C64.2834059,22.070495 64.2834059,24.1962772 64.2834059,24.1962772 L67.2570297,24.1962772 L67.2570297,0.653465347 L64.2834059,0.653465347 Z M62.8928317,21.219802 L59.6597228,21.219802 C59.6597228,21.219802 59.6611485,18.4391287 59.6606733,17.0765941 C59.6606733,15.7112079 59.6606733,14.346297 59.6606733,12.9809109 C59.6606733,11.6326337 59.6606733,10.2843564 59.6606733,8.93607921 C59.6611485,7.57069307 59.6644752,6.20578218 59.6597228,4.84039604 C59.6554455,3.48166337 59.6597228,0.653465347 59.6597228,0.653465347 L56.7312475,0.653465347 L56.7312475,24.1962772 L62.8928317,24.1962772 L62.8928317,21.219802 Z M93.1033663,24.1962772 C93.1033663,24.1962772 93.1005149,21.4255842 93.1038416,20.0649505 C93.1066931,18.6990891 93.1071683,17.3332277 93.1085941,15.9673663 C93.1095446,14.6181386 93.110495,13.2693861 93.1119208,11.9201584 C93.1133465,10.554297 93.1090693,9.18843564 93.1185743,7.82257426 C93.1280792,6.46336634 93.1033663,3.66083168 93.1033663,3.66083168 L95.9158812,3.66083168 L95.9158812,0.653465347 L87.461703,0.653465347 L87.461703,3.66083168 L90.1482772,3.66083168 C90.1482772,3.66083168 90.1530297,4.21639604 90.1530297,4.43263366 C90.1530297,9.37330693 90.1530297,14.3144554 90.1530297,19.2551287 C90.1530297,20.7055842 90.1482772,24.1962772 90.1482772,24.1962772 L93.1033663,24.1962772 Z M45.9298218,9.25449505 C45.9298218,9.25449505 45.9326733,5.91683168 45.9298218,4.4839604 C45.9250693,2.1110495 44.3562772,0.534178218 41.8602772,0.534178218 C39.2801584,0.534178218 37.8586931,2.72411881 37.8910099,4.29291089 C37.8990891,4.68023762 37.8914851,5.0680396 37.8914851,5.45584158 C37.8919604,10.4963168 37.9147723,15.5367921 37.8819802,20.5772673 C37.868198,22.6797624 39.542495,24.0190099 40.9568317,24.3374257 C43.0426931,24.8069703 45.9074851,23.3788515 45.9260198,20.3667327 C45.936,18.6981386 45.9298218,14.9398812 45.9298218,14.9398812 L43.0369901,14.9398812 C43.0369901,14.9398812 43.0322376,18.666297 43.0308119,20.200396 C43.0308119,20.3686337 43.0365149,20.5397228 43.0094257,20.7046337 C42.9248317,21.2312079 42.4405545,21.6475248 41.9187327,21.6584554 C41.3802772,21.6698614 40.9915248,21.3390891 40.8917228,20.7426535 C40.842297,20.4451485 40.8332673,20.1386139 40.8327921,19.8363564 C40.8318416,16.1441584 40.8356436,12.4524356 40.838495,8.76071287 C40.8399208,7.29409901 40.8346931,5.82748515 40.8465743,4.36087129 C40.851802,3.70455446 41.2576634,3.26732673 41.8403168,3.24451485 C42.4890297,3.21885149 42.9590495,3.63611881 43.0260594,4.30479208 C43.0422178,4.47207921 43.0374653,4.64174257 43.0369901,4.8099802 C43.0317624,6.10835644 43.0369901,9.25449505 43.0369901,9.25449505 L45.9298218,9.25449505 Z M76.7824158,8.7740198 C76.7824158,8.7740198 76.7862178,6.36641584 76.7824158,4.96681188 C76.7819406,4.7990495 76.8042772,3.8390495 76.705901,3.49164356 C76.3394851,2.06542574 75.5695842,1.17005941 74.1191287,0.67770297 C72.6168713,0.167287129 71.1787723,0.438653465 69.9345743,1.45568317 C69.014495,2.20752475 68.6152871,3.22075248 68.6152871,4.39841584 C68.6143366,9.87849505 68.6143366,15.3590495 68.6167129,20.8391287 C68.6171881,21.0577426 68.6395248,21.2773069 68.6675644,21.4940198 C68.8605149,22.9753663 69.8176634,24.0432475 71.2804752,24.3474059 C72.2979802,24.5588911 73.3325941,24.5508119 74.3410693,24.3003564 C75.363802,24.0465743 76.1061386,23.4102178 76.5243564,22.4288317 C76.7453465,21.9098614 76.8204356,21.36 76.8190099,20.7973069 C76.8123564,17.9985743 76.7895446,15.1998416 76.7824158,12.4006337 C76.7819406,12.2547327 76.7824158,11.9272871 76.7824158,11.9272871 L72.5617426,11.9272871 L72.5617426,14.88 L73.9000396,14.8766733 C73.9000396,14.8766733 73.9119208,18.5560396 73.8976634,20.2255842 C73.8952871,20.4727129 73.8914851,20.7364752 73.8111683,20.9726733 C73.6552871,21.4322376 73.1634059,21.6632079 72.6696238,21.6598812 C72.1991287,21.6560792 71.8712079,21.4754851 71.6991683,21.066297 C71.5836832,20.7659406 71.6041188,20.1666535 71.6041188,20.1666535 L71.6041188,4.39508911 C71.6041188,3.76586139 72.1991287,3.28063366 72.7518416,3.28063366 C73.2674851,3.28063366 73.8952871,3.76586139 73.8952871,4.36990099 C73.8952871,4.63889109 73.8952871,8.7740198 73.8952871,8.7740198 L76.7824158,8.7740198 Z M50.2859406,24.1858218 L50.2859406,13.2047525 L52.3865347,13.2014257 C52.3865347,13.2014257 52.3865347,15.690297 52.3865347,16.9007525 C52.3865347,18.1150099 52.3836832,19.3292673 52.3874851,20.5430495 C52.3912871,21.749703 52.3865347,24.1962772 52.3865347,24.1962772 L55.286495,24.1962772 L55.286495,0.653465347 L52.3865347,0.653465347 L52.3865347,10.1840792 L50.2859406,10.1840792 L50.2859406,0.653465347 L47.3679208,0.653465347 L47.3679208,24.1962772 L50.2859406,24.1858218 Z M78.2832475,0.662970297 L78.2832475,24.1962772 L81.112396,24.1962772 L81.1333069,13.2071287 L83.2410297,13.2071287 L83.2410297,24.1962772 L86.150495,24.1962772 L86.150495,0.653465347 L83.2410297,0.653465347 L83.2410297,10.1935842 L81.1333069,10.1935842 C81.1333069,10.1935842 81.1409109,8.88617822 81.1409109,8.26455446 C81.1409109,7.64055446 81.1409109,7.0170297 81.1409109,6.39350495 C81.1409109,5.75287129 81.1409109,5.11223762 81.1409109,4.47160396 C81.1409109,3.84807921 81.1461386,3.22407921 81.1394851,2.60055446 C81.1328317,1.98463366 81.1333069,0.662970297 81.1333069,0.662970297 L78.2832475,0.662970297 Z M92.9479604,32.6537822 C92.5986535,32.2821386 91.8529901,31.7436832 90.9495446,31.249901 C90.2699406,30.8782574 90.3065347,30.1810693 90.6121188,29.8878416 C91.0336634,29.4834059 91.6120396,29.761901 91.9028911,29.996198 C92.154297,30.197703 92.4722376,30.5812277 92.4722376,30.5812277 L93.2635248,29.7790099 C92.6746931,29.0765941 92.0815842,28.5685545 91.0697822,28.5685545 C90.3355248,28.5685545 89.4971881,28.9905743 89.191604,29.7005941 C88.8560792,30.4795248 89.137901,31.3596832 89.7466931,31.8971881 C90.0161584,32.1343366 90.2504554,32.2997228 90.5394059,32.4831683 C90.910099,32.7184158 91.3230891,32.9165941 91.6866535,33.166099 C91.9908119,33.3747327 92.0939406,33.7577822 91.9461386,34.0823762 C91.8154455,34.3903366 91.4704158,34.4891881 91.1154059,34.408396 C90.7328317,34.3214257 90.2043564,33.9008317 89.9016238,33.6190099 L89.0461782,34.4777822 C89.9272871,35.4092673 91.1634059,36.0651089 92.4926733,35.3227723 C93.4873663,34.7672079 93.6613069,33.4113267 92.9479604,32.6537822 Z M49.9703762,28.8836436 C49.9703762,28.8836436 49.9703762,31.7555644 49.9703762,33.1470891 C49.9703762,34.8123564 51.1822574,35.617901 52.6051485,35.617901 C54.0280396,35.617901 55.4162376,34.8285149 55.4162376,33.1423366 C55.4162376,32.352 55.4162376,28.8845941 55.4162376,28.8845941 L54.1112079,28.8826931 C54.1112079,28.8826931 54.1112079,32.1942178 54.1112079,33.0396832 C54.1112079,33.8846733 53.6426139,34.4730297 52.7063762,34.4730297 C51.7487525,34.4730297 51.2649505,33.834297 51.2649505,33.0501386 C51.2649505,31.8544158 51.265901,28.8826931 51.265901,28.8826931 L49.9703762,28.8836436 Z M76.9758416,28.8023762 L76.9758416,35.5618218 L80.8533861,35.5694257 L80.8533861,34.2244752 L78.3165149,34.2244752 L78.3165149,32.649505 L80.8533861,32.649505 L80.8533861,31.3088317 L78.3165149,31.3088317 L78.3165149,30.1373465 L80.8533861,30.1373465 L80.8533861,28.8023762 L76.9758416,28.8023762 Z M15.8951287,28.7995248 L14.5473267,28.803802 L14.5473267,35.5694257 L15.8951287,35.5694257 L15.8951287,28.7995248 Z M40.1527129,35.568 L40.1508119,30.0489505 L41.4059406,30.0489505 L41.4059406,28.8071287 C41.4059406,28.8071287 38.8367525,28.8009505 37.6082376,28.8009505 C37.6082376,29.2158416 37.6082376,30.0489505 37.6082376,30.0489505 L38.8619406,30.0489505 L38.8871287,35.568 L40.1527129,35.568 Z M29.3764752,30.4006337 C29.3764752,30.0337426 29.3764752,29.0300198 29.3764752,29.0300198 C29.3764752,29.0300198 27.984,28.368 26.5183366,28.8717624 C25.3701386,29.2386535 24.2010297,30.3645149 24.2034059,32.1224554 C24.2057822,33.6318416 25.002297,34.5390891 25.6167921,34.9587327 C26.6585347,35.6692277 27.6370693,35.7918416 28.938297,35.4282772 C29.2186931,35.3498614 29.370297,35.2733465 29.370297,35.2733465 L29.3764752,33.9150891 C29.3764752,33.9150891 28.7928713,34.2586931 27.9559604,34.2254257 C26.6295446,34.2501386 25.6239208,33.271604 25.6239208,32.1752079 C25.6239208,31.1676832 26.2360396,30.5764752 27.0197228,30.2571089 C27.452198,30.0807921 27.9127129,30.0451485 28.377505,30.090297 C28.702099,30.1221386 28.9924752,30.2038812 29.3764752,30.4006337 Z" id="Fill-1" fill="#000203" mask="url(#mask-2)"></path>
            <path d="M3.73211881,31.6400792 C3.73211881,31.6400792 3.73211881,30.6325545 3.73211881,30.1002772 C4.05576238,30.1002772 4.51390099,30.0822178 4.72063366,30.1582574 C5.10843564,30.2746931 5.25148515,30.5080396 5.25005941,30.8801584 C5.24863366,31.2508515 4.97916832,31.5740198 4.59231683,31.6272475 C4.33615842,31.6543366 3.73211881,31.6400792 3.73211881,31.6400792 Z M3.74590099,32.9969109 C3.88229703,32.9969109 4.224,33.0002376 4.41647525,32.9945347 C5.82558416,32.9945347 6.56554455,32.0592475 6.56554455,30.8701782 C6.56554455,29.5993663 5.50906931,28.7672079 4.38891089,28.7672079 C3.85045545,28.7672079 2.39572277,28.761505 2.39572277,28.761505 L2.39572277,35.5694257 L3.7449505,35.5694257 C3.7449505,35.5694257 3.74590099,33.8960792 3.74590099,32.9969109 Z M65.2196436,31.7679208 L65.2196436,29.948198 C65.2196436,29.948198 65.961505,29.9467723 66.24,29.9467723 C66.7328317,29.9467723 67.1448713,30.3687921 67.1448713,30.8801584 C67.1448713,31.3169109 66.7527921,31.766495 66.2480792,31.766495 C65.9458218,31.766495 65.2196436,31.7679208 65.2196436,31.7679208 Z M67.4423762,35.5694257 L69.1546931,35.5694257 C69.1546931,35.5694257 67.624396,33.7226139 66.9314851,32.8657426 C68.1034455,32.5444752 68.5216634,31.5250693 68.5102574,30.8449901 C68.5007525,30.2613861 68.2398416,29.6592475 67.7522376,29.2771485 C67.4133861,29.0119604 67.0607525,28.8451485 66.4823762,28.803802 C65.6906139,28.7866931 63.8775446,28.8023762 63.8775446,28.8023762 L63.8775446,35.5694257 L65.2272475,35.5689505 L65.2272475,32.8657426 L67.4423762,35.5694257 Z M23.0371485,14.7260198 C22.5077228,14.7260198 22.0776238,14.7260198 21.5819406,14.7260198 C21.8076832,11.4472871 22.3095446,4.05386139 22.3095446,4.05386139 C22.3095446,4.05386139 22.8123564,11.4501386 23.0371485,14.7260198 Z M20.0663762,0.653465347 L17.3831287,24.1962772 L20.7331485,24.1972277 L21.3595248,17.8873663 L23.2795248,17.8883168 L23.9767129,24.2072079 L27.2844356,24.190099 L24.622099,0.653465347 L20.0663762,0.653465347 Z M31.4946535,10.2130693 C31.4946535,8.01267327 31.4946535,5.81655446 31.4946535,3.63992079 C31.912396,3.63992079 32.4080792,3.63041584 32.8538614,3.69932673 C33.1418614,3.74352475 33.3343366,3.94360396 33.4103762,4.22685149 C33.4493465,4.37132673 33.4659802,4.52578218 33.4659802,4.67548515 C33.4702574,6.12594059 33.4731089,7.57592079 33.4626535,9.02637624 C33.4612277,9.24023762 33.4108515,9.46122772 33.3428911,9.66558416 C33.2312079,10.0020594 32.9712475,10.1888317 32.6209901,10.2087921 C32.2697822,10.2287525 31.9166733,10.2130693 31.4946535,10.2130693 Z M28.3394851,24.1962772 L31.6020594,24.1962772 C31.6020594,24.1962772 31.6020594,16.8484752 31.6020594,13.1976238 C31.6020594,13.1976238 32.7535842,13.1976238 32.9137426,13.2342178 C33.1741782,13.2774653 33.3324356,13.4770693 33.3799604,13.7251485 C33.4293861,13.9874851 33.4545743,14.2583762 33.4550495,14.5259406 C33.4602772,17.5442376 33.4583762,24.1962772 33.4583762,24.1962772 L36.5436832,24.1962772 C36.5436832,24.1962772 36.5479604,17.3821782 36.5417822,14.1614257 C36.5408317,13.7764752 36.5503366,13.395802 36.4847525,13.0151287 C36.3887525,12.4529109 36.1226139,11.9315644 35.4810297,11.7994455 C35.3408317,11.7704554 35.0998812,11.7714059 35.0998812,11.7714059 C35.0998812,11.7714059 35.3527129,11.7281584 35.4463366,11.6839604 C36.0047525,11.4192475 36.3165149,10.9078812 36.4543366,10.312396 C36.5294257,9.98732673 36.5517624,9.64467327 36.5531881,9.30962376 C36.5617426,7.33687129 36.5579406,5.36411881 36.5565149,3.39089109 C36.5565149,3.2060198 36.5698218,2.96269307 36.5436832,2.78019802 C36.4068119,1.83065347 35.9187327,1.14011881 34.9848713,0.855445545 C34.5566733,0.725227723 34.0937822,0.660594059 33.6446733,0.653465347 C32.0939406,0.62970297 28.3394851,0.653465347 28.3394851,0.653465347 L28.3394851,24.1962772 Z M0.0584554455,27.3666535 L95.9158812,27.3666535 L95.9158812,26.0188515 L0.0584554455,26.0188515 L0.0584554455,27.3666535 Z M7.9190495,9.25449505 L7.9190495,3.66083168 C7.91477228,3.35192079 7.78835644,2.9769505 7.65386139,2.69655446 C6.65489109,0.612594059 3.5529505,-0.587405941 1.25607921,1.40388119 C0.573623762,1.99508911 0.0575049505,2.70320792 0.0365940594,3.64657426 C0.0038019802,5.09560396 0.00237623762,6.54558416 0,7.99556436 C-0.00095049505,8.47413861 0.118811881,8.92229703 0.38970297,9.33433663 C1.41766337,10.8969505 2.42851485,12.4709703 3.4550495,14.0345347 C3.82431683,14.597703 4.22257426,15.1423366 4.60134653,15.6993267 C4.84419802,16.0567129 4.96586139,16.4426139 4.94637624,16.888396 C4.91881188,17.5109703 4.93972277,18.1354455 4.93924752,18.7589703 C4.93924752,19.484198 4.94019802,20.3367921 4.94019802,21.0615446 C4.94019802,21.2535446 4.86415842,21.4873663 4.60134653,21.6223366 C4.13988119,21.8590099 3.64942574,21.8675644 3.19413861,21.6199604 C3.05726733,21.5453465 2.93322772,21.3462178 2.91279208,21.1713267 C2.89615842,21.027802 2.89235644,20.8714455 2.89235644,20.7198416 C2.89140594,19.1011485 2.89283168,17.4829307 2.89045545,15.8647129 C2.8899802,15.6684356 2.89188119,15.2411881 2.89188119,15.2411881 L0.0133069307,15.2411881 C0.0133069307,15.2411881 0.0156831683,15.5605545 0.0152079208,15.7059802 C0.0123564356,17.5100198 0.0123564356,19.3140594 0.0147326733,21.1176238 C0.0156831683,22.1764752 0.473346535,23.0048317 1.32641584,23.6079208 C2.41140594,24.3749703 3.63421782,24.5584158 4.89932673,24.2642376 C6.87730693,23.8046733 7.96324752,21.9559604 7.90716832,20.5416238 C7.86011881,19.3463762 7.84681188,18.1449505 7.91239604,16.951604 C7.97845545,15.7449505 7.68,14.6889505 6.93433663,13.7493861 C6.9029703,13.7099406 6.87207921,13.6700198 6.8440396,13.6277228 C5.69774257,11.9016238 4.55477228,10.174099 3.40419802,8.45085149 C3.17417822,8.10582178 3.00546535,7.74130693 2.99976238,7.32546535 C2.98407921,6.17964356 2.97029703,5.03334653 2.98978218,3.88752475 C2.99310891,3.6969505 3.12047525,3.45742574 3.26732673,3.32958416 C3.64657426,2.99976238 4.11184158,3.00356436 4.55524752,3.18320792 C4.93924752,3.37283168 5.02906931,3.70835644 5.02764356,4.07714851 C5.02241584,5.62788119 5.02764356,9.25449505 5.02764356,9.25449505 L7.9190495,9.25449505 Z M12.3421782,3.66938614 C13.0189307,3.66938614 13.639604,3.67413861 14.2602772,3.6679604 C14.8937822,3.66178218 15.5296634,3.69647525 16.174099,3.64324752 C16.174099,2.64665347 16.1674455,0.653465347 16.1674455,0.653465347 L9.27540594,0.653465347 L9.27540594,24.1962772 L16.1674455,24.1962772 L16.1674455,21.219802 L12.3502574,21.219802 L12.3502574,12.9690297 L16.1674455,12.9690297 C16.1674455,12.9690297 16.1693465,11.0713663 16.1693465,10.0975842 C14.8847525,10.089505 13.639604,10.1023366 12.3502574,10.0942574 C12.3502574,7.93758416 12.3421782,5.83413861 12.3421782,3.66938614 Z M64.2834059,0.653465347 C64.2834059,0.653465347 64.2834059,14.6846733 64.2834059,21.2782574 C64.2834059,22.070495 64.2834059,24.1962772 64.2834059,24.1962772 L67.2570297,24.1962772 L67.2570297,0.653465347 L64.2834059,0.653465347 Z M62.8928317,21.219802 L59.6597228,21.219802 C59.6597228,21.219802 59.6611485,18.4391287 59.6606733,17.0765941 C59.6606733,15.7112079 59.6606733,14.346297 59.6606733,12.9809109 C59.6606733,11.6326337 59.6606733,10.2843564 59.6606733,8.93607921 C59.6611485,7.57069307 59.6644752,6.20578218 59.6597228,4.84039604 C59.6554455,3.48166337 59.6597228,0.653465347 59.6597228,0.653465347 L56.7312475,0.653465347 L56.7312475,24.1962772 L62.8928317,24.1962772 L62.8928317,21.219802 Z M93.1033663,24.1962772 C93.1033663,24.1962772 93.1005149,21.4255842 93.1038416,20.0649505 C93.1066931,18.6990891 93.1071683,17.3332277 93.1085941,15.9673663 C93.1095446,14.6181386 93.110495,13.2693861 93.1119208,11.9201584 C93.1133465,10.554297 93.1090693,9.18843564 93.1185743,7.82257426 C93.1280792,6.46336634 93.1033663,3.66083168 93.1033663,3.66083168 L95.9158812,3.66083168 L95.9158812,0.653465347 L87.461703,0.653465347 L87.461703,3.66083168 L90.1482772,3.66083168 C90.1482772,3.66083168 90.1530297,4.21639604 90.1530297,4.43263366 C90.1530297,9.37330693 90.1530297,14.3144554 90.1530297,19.2551287 C90.1530297,20.7055842 90.1482772,24.1962772 90.1482772,24.1962772 L93.1033663,24.1962772 Z M45.9298218,9.25449505 C45.9298218,9.25449505 45.9326733,5.91683168 45.9298218,4.4839604 C45.9250693,2.1110495 44.3562772,0.534178218 41.8602772,0.534178218 C39.2801584,0.534178218 37.8586931,2.72411881 37.8910099,4.29291089 C37.8990891,4.68023762 37.8914851,5.0680396 37.8914851,5.45584158 C37.8919604,10.4963168 37.9147723,15.5367921 37.8819802,20.5772673 C37.868198,22.6797624 39.542495,24.0190099 40.9568317,24.3374257 C43.0426931,24.8069703 45.9074851,23.3788515 45.9260198,20.3667327 C45.936,18.6981386 45.9298218,14.9398812 45.9298218,14.9398812 L43.0369901,14.9398812 C43.0369901,14.9398812 43.0322376,18.666297 43.0308119,20.200396 C43.0308119,20.3686337 43.0365149,20.5397228 43.0094257,20.7046337 C42.9248317,21.2312079 42.4405545,21.6475248 41.9187327,21.6584554 C41.3802772,21.6698614 40.9915248,21.3390891 40.8917228,20.7426535 C40.842297,20.4451485 40.8332673,20.1386139 40.8327921,19.8363564 C40.8318416,16.1441584 40.8356436,12.4524356 40.838495,8.76071287 C40.8399208,7.29409901 40.8346931,5.82748515 40.8465743,4.36087129 C40.851802,3.70455446 41.2576634,3.26732673 41.8403168,3.24451485 C42.4890297,3.21885149 42.9590495,3.63611881 43.0260594,4.30479208 C43.0422178,4.47207921 43.0374653,4.64174257 43.0369901,4.8099802 C43.0317624,6.10835644 43.0369901,9.25449505 43.0369901,9.25449505 L45.9298218,9.25449505 Z M76.7824158,8.7740198 C76.7824158,8.7740198 76.7862178,6.36641584 76.7824158,4.96681188 C76.7819406,4.7990495 76.8042772,3.8390495 76.705901,3.49164356 C76.3394851,2.06542574 75.5695842,1.17005941 74.1191287,0.67770297 C72.6168713,0.167287129 71.1787723,0.438653465 69.9345743,1.45568317 C69.014495,2.20752475 68.6152871,3.22075248 68.6152871,4.39841584 C68.6143366,9.87849505 68.6143366,15.3590495 68.6167129,20.8391287 C68.6171881,21.0577426 68.6395248,21.2773069 68.6675644,21.4940198 C68.8605149,22.9753663 69.8176634,24.0432475 71.2804752,24.3474059 C72.2979802,24.5588911 73.3325941,24.5508119 74.3410693,24.3003564 C75.363802,24.0465743 76.1061386,23.4102178 76.5243564,22.4288317 C76.7453465,21.9098614 76.8204356,21.36 76.8190099,20.7973069 C76.8123564,17.9985743 76.7895446,15.1998416 76.7824158,12.4006337 C76.7819406,12.2547327 76.7824158,11.9272871 76.7824158,11.9272871 L72.5617426,11.9272871 L72.5617426,14.88 L73.9000396,14.8766733 C73.9000396,14.8766733 73.9119208,18.5560396 73.8976634,20.2255842 C73.8952871,20.4727129 73.8914851,20.7364752 73.8111683,20.9726733 C73.6552871,21.4322376 73.1634059,21.6632079 72.6696238,21.6598812 C72.1991287,21.6560792 71.8712079,21.4754851 71.6991683,21.066297 C71.5836832,20.7659406 71.6041188,20.1666535 71.6041188,20.1666535 L71.6041188,4.39508911 C71.6041188,3.76586139 72.1991287,3.28063366 72.7518416,3.28063366 C73.2674851,3.28063366 73.8952871,3.76586139 73.8952871,4.36990099 C73.8952871,4.63889109 73.8952871,8.7740198 73.8952871,8.7740198 L76.7824158,8.7740198 Z M50.2859406,24.1858218 L50.2859406,13.2047525 L52.3865347,13.2014257 C52.3865347,13.2014257 52.3865347,15.690297 52.3865347,16.9007525 C52.3865347,18.1150099 52.3836832,19.3292673 52.3874851,20.5430495 C52.3912871,21.749703 52.3865347,24.1962772 52.3865347,24.1962772 L55.286495,24.1962772 L55.286495,0.653465347 L52.3865347,0.653465347 L52.3865347,10.1840792 L50.2859406,10.1840792 L50.2859406,0.653465347 L47.3679208,0.653465347 L47.3679208,24.1962772 L50.2859406,24.1858218 Z M78.2832475,0.662970297 L78.2832475,24.1962772 L81.112396,24.1962772 L81.1333069,13.2071287 L83.2410297,13.2071287 L83.2410297,24.1962772 L86.150495,24.1962772 L86.150495,0.653465347 L83.2410297,0.653465347 L83.2410297,10.1935842 L81.1333069,10.1935842 C81.1333069,10.1935842 81.1409109,8.88617822 81.1409109,8.26455446 C81.1409109,7.64055446 81.1409109,7.0170297 81.1409109,6.39350495 C81.1409109,5.75287129 81.1409109,5.11223762 81.1409109,4.47160396 C81.1409109,3.84807921 81.1461386,3.22407921 81.1394851,2.60055446 C81.1328317,1.98463366 81.1333069,0.662970297 81.1333069,0.662970297 L78.2832475,0.662970297 Z M92.9479604,32.6537822 C92.5986535,32.2821386 91.8529901,31.7436832 90.9495446,31.249901 C90.2699406,30.8782574 90.3065347,30.1810693 90.6121188,29.8878416 C91.0336634,29.4834059 91.6120396,29.761901 91.9028911,29.996198 C92.154297,30.197703 92.4722376,30.5812277 92.4722376,30.5812277 L93.2635248,29.7790099 C92.6746931,29.0765941 92.0815842,28.5685545 91.0697822,28.5685545 C90.3355248,28.5685545 89.4971881,28.9905743 89.191604,29.7005941 C88.8560792,30.4795248 89.137901,31.3596832 89.7466931,31.8971881 C90.0161584,32.1343366 90.2504554,32.2997228 90.5394059,32.4831683 C90.910099,32.7184158 91.3230891,32.9165941 91.6866535,33.166099 C91.9908119,33.3747327 92.0939406,33.7577822 91.9461386,34.0823762 C91.8154455,34.3903366 91.4704158,34.4891881 91.1154059,34.408396 C90.7328317,34.3214257 90.2043564,33.9008317 89.9016238,33.6190099 L89.0461782,34.4777822 C89.9272871,35.4092673 91.1634059,36.0651089 92.4926733,35.3227723 C93.4873663,34.7672079 93.6613069,33.4113267 92.9479604,32.6537822 Z M49.9703762,28.8836436 C49.9703762,28.8836436 49.9703762,31.7555644 49.9703762,33.1470891 C49.9703762,34.8123564 51.1822574,35.617901 52.6051485,35.617901 C54.0280396,35.617901 55.4162376,34.8285149 55.4162376,33.1423366 C55.4162376,32.352 55.4162376,28.8845941 55.4162376,28.8845941 L54.1112079,28.8826931 C54.1112079,28.8826931 54.1112079,32.1942178 54.1112079,33.0396832 C54.1112079,33.8846733 53.6426139,34.4730297 52.7063762,34.4730297 C51.7487525,34.4730297 51.2649505,33.834297 51.2649505,33.0501386 C51.2649505,31.8544158 51.265901,28.8826931 51.265901,28.8826931 L49.9703762,28.8836436 Z M76.9758416,28.8023762 L76.9758416,35.5618218 L80.8533861,35.5694257 L80.8533861,34.2244752 L78.3165149,34.2244752 L78.3165149,32.649505 L80.8533861,32.649505 L80.8533861,31.3088317 L78.3165149,31.3088317 L78.3165149,30.1373465 L80.8533861,30.1373465 L80.8533861,28.8023762 L76.9758416,28.8023762 Z M15.8951287,28.7995248 L14.5473267,28.803802 L14.5473267,35.5694257 L15.8951287,35.5694257 L15.8951287,28.7995248 Z M40.1527129,35.568 L40.1508119,30.0489505 L41.4059406,30.0489505 L41.4059406,28.8071287 C41.4059406,28.8071287 38.8367525,28.8009505 37.6082376,28.8009505 C37.6082376,29.2158416 37.6082376,30.0489505 37.6082376,30.0489505 L38.8619406,30.0489505 L38.8871287,35.568 L40.1527129,35.568 Z M29.3764752,30.4006337 C29.3764752,30.0337426 29.3764752,29.0300198 29.3764752,29.0300198 C29.3764752,29.0300198 27.984,28.368 26.5183366,28.8717624 C25.3701386,29.2386535 24.2010297,30.3645149 24.2034059,32.1224554 C24.2057822,33.6318416 25.002297,34.5390891 25.6167921,34.9587327 C26.6585347,35.6692277 27.6370693,35.7918416 28.938297,35.4282772 C29.2186931,35.3498614 29.370297,35.2733465 29.370297,35.2733465 L29.3764752,33.9150891 C29.3764752,33.9150891 28.7928713,34.2586931 27.9559604,34.2254257 C26.6295446,34.2501386 25.6239208,33.271604 25.6239208,32.1752079 C25.6239208,31.1676832 26.2360396,30.5764752 27.0197228,30.2571089 C27.452198,30.0807921 27.9127129,30.0451485 28.377505,30.090297 C28.702099,30.1221386 28.9924752,30.2038812 29.3764752,30.4006337 Z" id="Fill-3" fill="#000000" mask="url(#mask-2)"></path>
        </g>
    </g>
</svg>